HIERARCHY
ROOT Hips
{
	OFFSET 0.00000 0.00000 0.00000
	CHANNELS 6 Xposition Yposition Zposition Zrotation Yrotation Xrotation 
	JOINT LHipJoint
	{
		OFFSET 0 0 0
		CHANNELS 3 Zrotation Yrotation Xrotation
		JOINT LeftUpLeg
		{
			OFFSET 3.13874 -1.57224 1.49786
			CHANNELS 3 Zrotation Yrotation Xrotation
			JOINT LeftLeg
			{
				OFFSET 2.10955 -5.79594 0.00000
				CHANNELS 3 Zrotation Yrotation Xrotation
				JOINT LeftFoot
				{
					OFFSET 2.41843 -6.64458 0.00000
					CHANNELS 3 Zrotation Yrotation Xrotation
					JOINT LeftToeBase
					{
						OFFSET 0.04713 -0.12948 1.66229
						CHANNELS 3 Zrotation Yrotation Xrotation
						End Site
						{
							OFFSET 0.00000 -0.00000 0.85167
						}
					}
				}
			}
		}
	}
	JOINT RHipJoint
	{
		OFFSET 0 0 0
		CHANNELS 3 Zrotation Yrotation Xrotation
		JOINT RightUpLeg
		{
			OFFSET -3.13988 -1.57224 1.49786
			CHANNELS 3 Zrotation Yrotation Xrotation
			JOINT RightLeg
			{
				OFFSET -2.15006 -5.90725 0.00000
				CHANNELS 3 Zrotation Yrotation Xrotation
				JOINT RightFoot
				{
					OFFSET -2.34496 -6.44273 0.00000
					CHANNELS 3 Zrotation Yrotation Xrotation
					JOINT RightToeBase
					{
						OFFSET -0.08699 -0.23900 1.55223
						CHANNELS 3 Zrotation Yrotation Xrotation
						End Site
						{
							OFFSET -0.00000 -0.00000 0.80281
						}
					}
				}
			}
		}
	}
	JOINT LowerBack
	{
		OFFSET 0 0 0
		CHANNELS 3 Zrotation Yrotation Xrotation
		JOINT Spine
		{
			OFFSET 0.01292 1.96517 -0.16495
			CHANNELS 3 Zrotation Yrotation Xrotation
			JOINT Spine1
			{
				OFFSET 0.02122 1.88666 0.19706
				CHANNELS 3 Zrotation Yrotation Xrotation
				JOINT Neck
				{
					OFFSET 0 0 0
					CHANNELS 3 Zrotation Yrotation Xrotation
					JOINT Neck1
					{
						OFFSET -0.01683 1.81591 0.07903
						CHANNELS 3 Zrotation Yrotation Xrotation
						JOINT Head
						{
							OFFSET 0.00815 1.74013 -0.47700
							CHANNELS 3 Zrotation Yrotation Xrotation
							End Site
							{
								OFFSET -0.00204 1.83225 -0.16933
							}
						}
					}
				}
				JOINT LeftShoulder
				{
					OFFSET 0 0 0
					CHANNELS 3 Zrotation Yrotation Xrotation
					JOINT LeftArm
					{
						OFFSET 3.38482 1.41533 0.19802
						CHANNELS 3 Zrotation Yrotation Xrotation
						JOINT LeftForeArm
						{
							OFFSET 4.32712 -0.00000 0.00000
							CHANNELS 3 Zrotation Yrotation Xrotation
							JOINT LeftHand
							{
								OFFSET 3.28587 -0.00000 -0.00000
								CHANNELS 3 Zrotation Yrotation Xrotation
								JOINT LeftFingerBase
								{
									OFFSET 0 0 0
									CHANNELS 3 Zrotation Yrotation Xrotation
									JOINT LeftHandIndex1
									{
										OFFSET 0.43316 -0.00000 -0.00000
										CHANNELS 3 Zrotation Yrotation Xrotation
										End Site
										{
											OFFSET 0.34922 -0.00000 -0.00000
										}
									}
								}
								JOINT LThumb
								{
									OFFSET 0 0 0
									CHANNELS 3 Zrotation Yrotation Xrotation
									End Site
									{
										OFFSET 0.35456 -0.00000 0.35456
									}
								}
							}
						}
					}
				}
				JOINT RightShoulder
				{
					OFFSET 0 0 0
					CHANNELS 3 Zrotation Yrotation Xrotation
					JOINT RightArm
					{
						OFFSET -3.09725 1.62858 -0.14144
						CHANNELS 3 Zrotation Yrotation Xrotation
						JOINT RightForeArm
						{
							OFFSET -4.29104 -0.00000 0.00000
							CHANNELS 3 Zrotation Yrotation Xrotation
							JOINT RightHand
							{
								OFFSET -3.22720 -0.00000 -0.00000
								CHANNELS 3 Zrotation Yrotation Xrotation
								JOINT RightFingerBase
								{
									OFFSET 0 0 0
									CHANNELS 3 Zrotation Yrotation Xrotation
									JOINT RightHandIndex1
									{
										OFFSET -0.54362 -0.00000 -0.00000
										CHANNELS 3 Zrotation Yrotation Xrotation
										End Site
										{
											OFFSET -0.43828 -0.00000 -0.00000
										}
									}
								}
								JOINT RThumb
								{
									OFFSET 0 0 0
									CHANNELS 3 Zrotation Yrotation Xrotation
									End Site
									{
										OFFSET -0.44497 -0.00000 0.44497
									}
								}
							}
						}
					}
				}
			}
		}
	}
}
MOTION
Frames: 11
Frame Time: .0083333
-9.0461 16.1118 -5.6331 -152.6360 68.5582 -145.5050 0.0000 0.0000 0.0000 -9.7242 -14.8890 -31.9605 10.6326 17.7506 61.5827 0.2424 10.0263 -17.6743 11.7897 -18.3003 -65.3205 0.0000 0.0000 0.0000 45.0053 7.6080 1.9031 -0.0787 1.8097 -4.9801 -1.0061 -13.1989 -27.8741 -0.0812 -1.8382 5.0586 2.0413 0.5502 5.4797 6.4057 2.4016 -9.8522 5.5061 1.6588 -14.1781 -7.6466 -8.7488 -10.4253 -2.4966 -8.5043 36.1796 -0.8418 -4.4071 14.4677 -0.0000 0.0000 0.0000 -76.9606 -9.8680 38.8983 48.3999 -52.3294 -24.9019 -0.0000 -0.0000 4.1266 33.5120 26.5129 16.4677 -7.1250 0.0000 -0.0000 4.2634 60.8227 1.6457 -0.0000 0.0000 0.0000 -9.5291 66.3256 -12.0604 -25.9073 37.1170 -8.8317 0.0000 0.0000 20.1714 -41.3581 -6.2154 5.4444 7.1250 -0.0000 -0.0000 -12.5228 -37.9566 -2.2132
-8.7445 16.0998 -5.6610 -151.8420 68.7048 -144.8350 0.0000 0.0000 0.0000 -9.7384 -16.2812 -34.1331 9.7261 17.2529 58.5691 0.2328 10.7246 -18.3666 12.2328 -18.4873 -66.7248 0.0000 0.0000 0.0000 45.7877 7.9524 3.5473 -0.0820 1.8476 -5.0847 -1.0699 -13.5909 -28.6932 -0.0599 -1.5795 4.3450 2.4373 0.6559 5.8415 6.6583 2.6145 -9.5172 5.5170 1.7263 -14.0282 -7.3749 -8.5907 -10.9745 -2.8614 -8.1686 36.1950 -1.0070 -4.2783 14.5494 0.0000 0.0000 0.0000 -77.7085 -8.4542 37.8484 46.9722 -51.6989 -23.7766 -0.0000 -0.0000 4.2003 32.6900 26.6761 16.0721 -7.1250 0.0000 -0.0000 3.2063 60.7878 1.2344 0.0000 0.0000 0.0000 -10.3704 65.8653 -12.1480 -25.9870 37.1958 -8.8798 0.0000 0.0000 18.9351 -41.6430 -6.3898 5.6516 7.1250 -0.0000 -0.0000 -12.7949 -38.2067 -2.1830
-8.4357 16.0794 -5.6943 -150.8100 68.9699 -144.0140 0.0000 0.0000 0.0000 -9.6814 -17.5937 -35.6986 8.5517 16.5104 54.5263 0.2482 11.4528 -19.4012 12.4895 -18.5900 -67.5322 0.0000 0.0000 0.0000 46.5887 8.1023 5.3332 -0.0886 1.9196 -5.2836 -1.1276 -13.8057 -29.2905 -0.0364 -1.2308 3.3840 2.9333 0.7767 6.1846 6.8722 2.8513 -9.1519 5.4199 1.7909 -13.8244 -6.9628 -8.3950 -11.4497 -3.3211 -7.7792 36.2510 -1.2216 -4.1185 14.6203 -0.0000 0.0000 0.0000 -77.8466 -6.4333 37.3987 45.9113 -51.2072 -22.9468 -0.0000 -0.0000 3.5337 32.3660 26.9879 16.0460 -7.1250 0.0000 -0.0000 2.7183 61.0464 1.0631 -0.0000 0.0000 0.0000 -9.4622 65.6923 -11.1422 -26.1069 37.3141 -8.9524 0.0000 0.0000 18.5268 -41.1242 -6.4952 5.6405 7.1250 -0.0000 -0.0000 -12.3593 -38.2976 -2.0778
-8.1234 16.0547 -5.7282 -149.1450 69.2706 -142.5050 0.0000 0.0000 0.0000 -9.1986 -18.7460 -36.9796 7.2331 15.5250 49.7504 0.4304 10.8756 -20.7008 12.4894 -18.5900 -67.5319 0.0000 0.0000 0.0000 47.5184 8.1502 6.9119 -0.0917 1.9531 -5.3762 -1.1315 -13.9677 -29.4665 -0.0073 -0.5499 1.5111 3.5458 0.9016 6.4820 7.1350 3.1402 -8.9010 5.3060 1.8831 -13.7325 -7.0765 -8.2910 -11.6206 -3.5103 -7.4811 36.4118 -1.2453 -4.0252 14.7309 0.0000 -0.0000 0.0000 -78.1985 -4.2847 36.8708 44.3001 -50.4210 -21.6980 -0.0000 -0.0000 3.0468 32.2313 27.3897 16.1750 -7.1250 0.0000 -0.0000 2.4297 61.4513 0.9734 0.0000 -0.0000 0.0000 -7.2600 65.4951 -8.7725 -26.3931 37.5943 -9.1264 0.0000 0.0000 18.2005 -40.1032 -6.2690 5.2543 7.1250 -0.0000 -0.0000 -11.4453 -37.9216 -2.0264
-7.8128 16.0278 -5.7628 -147.4740 69.6893 -140.7760 0.0000 0.0000 0.0000 -8.5258 -19.9482 -38.0437 5.8143 14.2460 44.2319 0.4265 11.0266 -20.8216 12.7919 -18.7057 -68.4779 0.0000 0.0000 0.0000 48.3632 8.5089 8.3895 -0.0924 1.9602 -5.3956 -1.3374 -13.3820 -30.3079 -0.0585 -1.5601 4.2915 3.9369 1.0457 6.6139 7.4189 3.4343 -8.7417 5.3442 2.0085 -13.6580 -7.2493 -8.1638 -11.7084 -3.6263 -7.1659 36.5267 -1.2208 -3.9234 14.8093 0.0000 0.0000 0.0000 -78.9955 -2.3593 35.9992 41.9163 -49.1651 -19.8772 -0.0000 -0.0000 2.8632 32.5068 27.8895 16.5982 -7.1250 0.0000 -0.0000 2.6150 62.0718 1.0861 0.0000 0.0000 0.0000 -7.2083 64.7776 -6.9336 -26.5291 37.7265 -9.2095 0.0000 0.0000 16.6292 -39.8647 -5.7252 4.7620 7.1250 -0.0000 -0.0000 -11.1744 -37.2108 -2.1748
-7.4988 15.9950 -5.8060 -146.3070 70.2252 -139.3500 0.0000 0.0000 0.0000 -7.8822 -21.4930 -38.6355 4.3380 12.5971 37.8785 0.3510 11.0886 -20.1056 12.8595 -18.7308 -68.6885 0.0000 0.0000 0.0000 48.9330 8.9397 9.8276 -0.0961 1.9996 -5.5045 -1.3547 -13.5924 -30.6030 -0.0407 -1.3022 3.5806 4.1346 1.1988 6.4681 7.6388 3.6751 -8.5792 5.4308 2.1221 -13.4033 -7.3722 -7.9472 -12.0189 -3.5761 -6.7959 36.5525 -1.1348 -3.7764 14.8983 -0.0000 -0.0000 0.0000 -79.8856 -0.5975 34.9918 39.2440 -47.6156 -17.8788 -0.0000 -0.0000 2.6886 33.4001 29.3430 17.9068 -7.1250 0.0000 -0.0000 3.2787 63.9063 1.5032 -0.0000 -0.0000 0.0000 -6.2195 64.1085 -4.5814 -26.4807 37.6795 -9.1799 0.0000 0.0000 15.8650 -39.8948 -5.2146 4.3449 7.1250 -0.0000 -0.0000 -11.1382 -36.5632 -2.3470
-7.1788 15.9547 -5.8576 -145.0030 70.7481 -137.6820 0.0000 0.0000 0.0000 -6.7494 -23.5869 -38.7429 2.9476 10.6097 30.9747 0.3088 10.9777 -19.5254 12.9135 -18.7507 -68.8565 0.0000 0.0000 0.0000 49.3108 8.7560 10.8890 -0.0993 2.0321 -5.5944 -1.2551 -13.7230 -30.0695 -0.0008 -0.1869 0.5135 4.4702 1.3345 6.1543 7.8262 3.8858 -8.4126 5.4103 2.2065 -13.0257 -7.2403 -7.7208 -12.4438 -3.7198 -6.4122 36.5550 -1.1714 -3.6193 14.9760 0.0000 -0.0000 0.0000 -80.7267 1.3024 33.8140 36.6580 -45.9604 -15.9937 -0.0000 -0.0000 2.7824 34.0937 30.9398 19.1887 -7.1250 0.0000 -0.0000 3.6260 65.8446 1.8258 0.0000 -0.0000 0.0000 -4.1076 63.7323 -1.8522 -26.1963 37.4019 -9.0066 0.0000 0.0000 15.9930 -39.5437 -5.0097 4.1237 7.1250 -0.0000 -0.0000 -10.8167 -36.2801 -2.3532
-6.8541 15.9103 -5.9157 -143.0820 71.2669 -135.3740 0.0000 0.0000 0.0000 -4.6828 -26.3412 -38.5952 1.8205 8.4818 24.1872 0.0906 12.0909 -18.3556 13.3626 -18.9092 -70.2481 0.0000 0.0000 0.0000 49.4696 7.7587 11.3786 -0.0938 1.9754 -5.4378 -1.2481 -12.7441 -29.1579 -0.0096 0.6325 -1.7382 4.9573 1.4728 5.8802 8.0039 4.1371 -8.3489 5.2925 2.3008 -12.7892 -7.4083 -7.5920 -12.6533 -3.6579 -6.1661 36.6555 -1.0898 -3.5291 15.0836 -0.0000 0.0000 0.0000 -81.5794 3.3474 32.4550 33.9391 -44.0396 -14.0707 -0.0000 -0.0000 3.1012 33.5999 31.1374 18.9604 -7.1250 0.0000 -0.0000 2.8576 65.9126 1.4430 -0.0000 0.0000 0.0000 -0.9955 63.3031 1.7464 -25.9268 37.1364 -8.8434 0.0000 0.0000 16.3008 -39.7544 -5.0323 4.1732 7.1250 -0.0000 -0.0000 -10.9974 -36.3219 -2.3823
-6.5232 15.8654 -5.9802 -140.9330 71.8530 -132.7410 0.0000 0.0000 0.0000 -1.7979 -29.6395 -38.6132 1.0563 6.5350 18.3449 -0.0482 13.4010 -18.4610 13.1863 -18.8484 -69.7033 0.0000 0.0000 0.0000 49.4419 6.7517 11.6421 -0.0819 1.8460 -5.0802 -1.3273 -11.2360 -28.4347 -0.0200 0.9136 -2.5111 5.2996 1.6224 5.5044 8.1526 4.3903 -8.4218 5.2328 2.4130 -12.6560 -7.2125 -7.4241 -12.3548 -3.8515 -5.9276 36.5031 -1.1430 -3.4249 14.9172 -0.0000 -0.0000 0.0000 -82.2038 5.9136 31.2897 31.6215 -42.2433 -12.4856 -0.0000 -0.0000 3.3990 31.7460 30.2304 17.3025 -7.1250 0.0000 -0.0000 0.7496 64.3990 0.3521 -0.0000 -0.0000 0.0000 2.5445 62.4342 6.4101 -25.9270 37.1366 -8.8436 0.0000 0.0000 15.6760 -40.6657 -5.4632 4.6759 7.1250 -0.0000 -0.0000 -11.8250 -36.9337 -2.3874
-6.1865 15.8169 -6.0519 -138.5970 72.4980 -129.8440 0.0000 0.0000 0.0000 1.5710 -32.9965 -39.1075 0.6265 5.0647 14.0932 -0.2571 15.4691 -19.0774 13.2545 -18.8721 -69.9141 0.0000 0.0000 0.0000 49.3215 5.9859 11.9080 -0.0672 1.6730 -4.6027 -1.3923 -9.5991 -27.6174 -0.0182 0.8712 -2.3945 5.4501 1.7703 4.8462 8.3293 4.7340 -9.1906 5.3317 2.6190 -13.2020 -7.1925 -7.1965 -9.0456 -4.1120 -5.6690 36.0029 -1.0451 -3.2780 13.9230 0.0000 -0.0000 0.0000 -83.0632 10.2706 30.2025 29.5923 -40.5414 -11.1437 -0.0000 -0.0000 4.3097 30.1236 28.7431 15.5903 -7.1250 0.0000 -0.0000 -0.6761 62.3572 -0.2852 0.0000 -0.0000 0.0000 8.8685 60.9227 14.3481 -25.9554 37.1646 -8.8607 0.0000 0.0000 14.9881 -41.0722 -5.8376 5.0655 7.1250 -0.0000 -0.0000 -12.2235 -37.4457 -2.3145
-5.8438 15.7613 -6.1274 -135.5640 73.1550 -126.3970 0.0000 0.0000 0.0000 4.6939 -35.5539 -39.9311 0.4310 4.2132 11.6773 -0.3888 17.0035 -20.0807 13.1643 -18.8407 -69.6350 0.0000 0.0000 0.0000 49.2138 5.2479 12.2679 -0.0473 1.4042 -3.8618 -1.4214 -8.0422 -26.7135 -0.0400 1.2907 -3.5490 6.3426 1.9297 4.7335 8.3031 4.8695 -8.3929 4.7572 2.5733 -12.1225 -6.8512 -7.0138 -12.9349 -4.2335 -5.2041 36.8247 -1.2755 -3.1222 15.1637 -0.0000 0.0000 0.0000 -84.2239 10.2041 27.1653 26.6703 -37.8630 -9.2961 -0.0000 -0.0000 5.8714 30.0520 28.5248 15.4447 -7.1250 0.0000 -0.0000 -0.6737 62.1044 -0.2802 -0.0000 0.0000 0.0000 9.9022 61.0979 15.3002 -25.4198 36.6299 -8.5391 0.0000 0.0000 15.0157 -40.5319 -5.7969 4.9359 7.1250 -0.0000 -0.0000 -11.7546 -37.3521 -2.2501
